<?xml version="1.0" encoding="utf-8"?>
<!-- Generator: Adobe Illustrator 16.0.4, SVG Export Plug-In . SVG Version: 6.00 Build 0)  -->
<!DOCTYPE svg PUBLIC "-//W3C//DTD SVG 1.1//EN" "http://www.w3.org/Graphics/SVG/1.1/DTD/svg11.dtd">
<svg version="1.1"
	 id="Ebene_1" xmlns:cc="http://creativecommons.org/ns#" xmlns:dc="http://purl.org/dc/elements/1.1/" xmlns:rdf="http://www.w3.org/1999/02/22-rdf-syntax-ns#"
	 xmlns="http://www.w3.org/2000/svg" xmlns:xlink="http://www.w3.org/1999/xlink" x="0px" y="0px" width="24px" height="24px"
	 viewBox="0 0 24 24" enable-background="new 0 0 24 24" xml:space="preserve">
<g>
	<path fill="#B4C2CC" d="M6.484,10.024c-0.933,0-1.821,0.156-2.624,0.548c-2.106,1.019-3.635,3.135-3.901,5.723
		c0,0.862,0.605,1.567,1.415,1.567h10.221c0.809,0,1.413-0.705,1.413-1.567c-0.265-2.588-1.794-4.702-3.9-5.723
		C8.305,10.181,7.417,10.024,6.484,10.024z"/>
	<path fill="#CCDCE9" d="M10.133,6.509c0,2.165-1.634,3.919-3.65,3.919S2.832,8.674,2.832,6.509S4.467,2.59,6.483,2.59
		C8.5,2.586,10.133,4.342,10.133,6.509z"/>
	<path fill="#CCDCE9" d="M6.483,9.643c-0.933,0-1.821,0.157-2.624,0.548c-2.106,1.019-3.634,3.135-3.901,5.724
		c0,0.862,0.608,1.565,1.414,1.565h10.222c0.806,0,1.414-0.703,1.414-1.565c-0.268-2.589-1.794-4.705-3.901-5.724
		C8.305,9.8,7.417,9.643,6.483,9.643z"/>
	<path fill="#111111" d="M11.75,1.657C11.75,1.449,6.875,0,6.484,0c-0.39,0-5.266,1.449-5.266,1.657
		c0,0.128,1.449,0.664,2.535,1.046c0,0.357,0,0.78,0,1.231c0.781-0.828,2.731-0.828,2.731-0.828s1.951,0,2.731,0.828
		c0-0.451,0-0.874,0-1.231C10.301,2.321,11.75,1.786,11.75,1.657z"/>
	<path fill="#E20505" d="M2.483,6.305V2.241c-0.136-0.05-0.267-0.103-0.39-0.15v4.214C1.585,6.661,1.898,7.723,1.898,8.283
		c0.193,0,0.301,0,0.359,0c0.012,0,0.022,0,0.031,0c0.025,0,0.033,0,0.03,0c0.059,0,0.166,0,0.358,0
		C2.678,7.723,2.993,6.661,2.483,6.305z"/>
</g>
<g>
	<path fill="#C6C6C5" d="M20.948,7.262c0,2.126-1.708,3.853-3.811,3.853c-2.104,0-3.81-1.727-3.81-3.853
		c0-2.129,1.705-3.854,3.81-3.854C19.24,3.408,20.948,5.133,20.948,7.262z"/>
	<path fill="#9E9E9D" d="M17.139,10.732c-0.975,0-1.9,0.156-2.738,0.539c-2.199,1.004-3.792,3.083-4.07,5.627
		c0,0.847,0.632,1.539,1.477,1.539h10.668c0.84,0,1.476-0.692,1.476-1.539c-0.277-2.545-1.873-4.623-4.072-5.627
		C19.038,10.888,18.111,10.732,17.139,10.732z"/>
	<path fill="#C6C6C5" d="M17.139,10.342c-0.975,0-1.9,0.155-2.738,0.54c-2.199,1.002-3.792,3.083-4.07,5.626
		c0,0.848,0.634,1.539,1.477,1.539h10.668c0.838,0,1.476-0.691,1.476-1.539c-0.282-2.543-1.873-4.624-4.075-5.626
		C19.038,10.497,18.111,10.342,17.139,10.342z"/>
	<path fill="#E20505" d="M12.963,7.047V3.052c-0.143-0.048-0.277-0.101-0.407-0.146v4.142c-0.53,0.351-0.201,1.394-0.201,1.943
		c0.201,0,0.313,0,0.372,0c0.016,0,0.022,0,0.033,0c0.028,0,0.034,0,0.033,0c0.061,0,0.17,0,0.373,0
		C13.166,8.44,13.495,7.397,12.963,7.047z"/>
	<path fill="#111111" d="M22.634,2.478c0-0.203-5.089-1.628-5.495-1.628c-0.408,0-5.496,1.425-5.496,1.628
		c0,0.128,1.514,0.653,2.646,1.028c0,0.353,0,0.768,0,1.21c0.814-0.812,2.85-0.812,2.85-0.812s2.035,0,2.851,0.812
		c0-0.442,0-0.857,0-1.21C21.121,3.131,22.634,2.605,22.634,2.478z"/>
</g>
<g>
	<path fill="#005F8E" d="M12,15.034c-1.121,0-2.19,0.179-3.156,0.62c-2.533,1.154-4.371,3.551-4.69,6.481
		c0,0.978,0.728,1.774,1.7,1.774h12.292c0.97,0,1.701-0.798,1.701-1.774c-0.32-2.932-2.158-5.323-4.69-6.481
		C14.189,15.213,13.121,15.034,12,15.034z"/>
	<path fill="#0064A3" d="M16.389,11.109c0,2.452-1.965,4.439-4.388,4.439c-2.424,0-4.389-1.987-4.389-4.439
		c0-2.451,1.965-4.438,4.389-4.438C14.424,6.671,16.389,8.658,16.389,11.109z"/>
	<path fill="#0064A3" d="M12,14.662c-1.123,0-2.19,0.177-3.156,0.619c-2.533,1.154-4.37,3.551-4.691,6.481
		c0,0.977,0.731,1.773,1.7,1.773h12.292c0.968,0,1.699-0.798,1.699-1.773c-0.32-2.932-2.156-5.327-4.69-6.481
		C14.189,14.839,13.121,14.662,12,14.662z"/>
	<path fill="#E20505" d="M6.517,11.974V6.727C6.331,6.662,6.151,6.596,5.981,6.532v5.44c-0.696,0.459-0.266,1.83-0.266,2.555
		c0.265,0,0.412,0,0.492,0c0.017,0,0.03,0,0.042,0c0.035,0,0.046,0,0.042,0c0.08,0,0.228,0,0.492,0
		C6.784,13.804,7.215,12.433,6.517,11.974z"/>
	<path fill="#282828" d="M19.219,5.973c0-0.268-6.683-2.14-7.218-2.14s-7.219,1.872-7.219,2.14c0,0.167,1.987,0.857,3.476,1.352
		c0,0.461,0,1.008,0,1.59C9.327,7.844,12,7.844,12,7.844s2.673,0,3.744,1.069c0-0.582,0-1.128,0-1.59
		C17.232,6.83,19.219,6.14,19.219,5.973z"/>
</g>
<g>
	<path fill="#D3711A" d="M12.656,12.896c0-0.606,0.193-1.22,0.583-1.842c0.389-0.621,0.956-1.136,1.702-1.544
		C15.688,9.104,16.557,8.9,17.553,8.9c0.924,0,1.738,0.17,2.446,0.512c0.707,0.34,1.254,0.806,1.638,1.391
		c0.387,0.585,0.58,1.221,0.58,1.912c0,0.543-0.109,1.018-0.33,1.424c-0.22,0.408-0.481,0.76-0.785,1.058
		c-0.302,0.299-0.846,0.795-1.63,1.495c-0.216,0.198-0.391,0.371-0.52,0.522c-0.131,0.149-0.229,0.285-0.293,0.413
		c-0.062,0.121-0.112,0.246-0.149,0.371c-0.033,0.123-0.086,0.342-0.156,0.652c-0.121,0.664-0.5,0.996-1.138,0.996
		c-0.331,0-0.608-0.107-0.837-0.324c-0.226-0.219-0.338-0.54-0.338-0.965c0-0.538,0.082-1.002,0.247-1.394
		c0.168-0.393,0.386-0.735,0.661-1.032c0.272-0.298,0.645-0.647,1.106-1.058c0.408-0.356,0.704-0.627,0.886-0.808
		c0.183-0.184,0.336-0.386,0.459-0.607c0.125-0.224,0.188-0.466,0.188-0.727c0-0.511-0.189-0.94-0.57-1.292
		c-0.379-0.349-0.867-0.524-1.465-0.524c-0.703,0-1.22,0.177-1.55,0.529c-0.333,0.354-0.612,0.875-0.843,1.563
		c-0.217,0.721-0.628,1.079-1.232,1.079c-0.356,0-0.658-0.126-0.904-0.377C12.779,13.462,12.656,13.189,12.656,12.896z
		 M17.322,23.375c-0.391,0-0.729-0.127-1.021-0.378c-0.289-0.252-0.435-0.604-0.435-1.058c0-0.4,0.14-0.736,0.42-1.012
		c0.281-0.273,0.627-0.414,1.034-0.414c0.399,0,0.739,0.141,1.012,0.414c0.274,0.274,0.41,0.61,0.41,1.012
		c0,0.446-0.144,0.799-0.429,1.053C18.028,23.248,17.698,23.375,17.322,23.375z"/>
	<path fill="#F68816" d="M12.656,12.661c0-0.605,0.193-1.218,0.582-1.84c0.389-0.621,0.957-1.135,1.703-1.543
		c0.744-0.409,1.613-0.613,2.606-0.613c0.924,0,1.742,0.171,2.449,0.512c0.708,0.341,1.254,0.806,1.639,1.392
		c0.386,0.586,0.579,1.222,0.579,1.912c0,0.543-0.107,1.017-0.329,1.423c-0.222,0.409-0.481,0.765-0.784,1.058
		c-0.303,0.297-0.847,0.793-1.631,1.496c-0.216,0.2-0.391,0.371-0.521,0.523c-0.129,0.147-0.229,0.284-0.291,0.408
		c-0.063,0.124-0.112,0.249-0.149,0.371c-0.033,0.126-0.086,0.344-0.156,0.657c-0.121,0.662-0.5,0.994-1.138,0.994
		c-0.331,0-0.61-0.109-0.837-0.326s-0.338-0.536-0.338-0.963c0-0.538,0.082-0.999,0.247-1.394c0.166-0.392,0.386-0.738,0.659-1.031
		c0.272-0.299,0.645-0.648,1.108-1.058c0.408-0.356,0.704-0.628,0.886-0.809c0.183-0.181,0.336-0.383,0.457-0.606
		c0.127-0.225,0.188-0.466,0.188-0.729c0-0.51-0.188-0.938-0.569-1.289c-0.379-0.349-0.867-0.524-1.469-0.524
		c-0.699,0-1.216,0.177-1.546,0.529c-0.333,0.354-0.614,0.878-0.845,1.562c-0.215,0.722-0.626,1.084-1.231,1.084
		c-0.355,0-0.657-0.127-0.903-0.381C12.778,13.229,12.656,12.955,12.656,12.661z M17.32,23.141c-0.389,0-0.729-0.123-1.019-0.379
		c-0.29-0.25-0.435-0.604-0.435-1.057c0-0.4,0.14-0.738,0.42-1.012c0.281-0.275,0.625-0.41,1.032-0.41
		c0.401,0,0.739,0.135,1.014,0.41c0.274,0.272,0.41,0.61,0.41,1.012c0,0.445-0.144,0.799-0.429,1.053
		C18.028,23.014,17.697,23.141,17.32,23.141z"/>
</g>
</svg>
