<?xml version="1.0" encoding="utf-8"?>
<!-- Generator: Adobe Illustrator 16.0.4, SVG Export Plug-In . SVG Version: 6.00 Build 0)  -->
<!DOCTYPE svg PUBLIC "-//W3C//DTD SVG 1.1//EN" "http://www.w3.org/Graphics/SVG/1.1/DTD/svg11.dtd">
<svg version="1.1"
	 id="Ebene_1" xmlns:cc="http://creativecommons.org/ns#" xmlns:dc="http://purl.org/dc/elements/1.1/" xmlns:rdf="http://www.w3.org/1999/02/22-rdf-syntax-ns#"
	 xmlns="http://www.w3.org/2000/svg" xmlns:xlink="http://www.w3.org/1999/xlink" x="0px" y="0px" width="24px" height="24px"
	 viewBox="0 0 24 24" enable-background="new 0 0 24 24" xml:space="preserve">
<path fill="#2980B9" d="M7,12.083c-0.996,0-1.945,0.157-2.803,0.552c-2.25,1.025-3.882,3.154-4.167,5.758
	c0,0.867,0.647,1.576,1.511,1.576h10.918c0.861,0,1.511-0.709,1.511-1.576c-0.284-2.604-1.917-4.73-4.167-5.758
	C8.945,12.24,7.996,12.083,7,12.083z"/>
<path fill="#16A085" d="M17,12.083c-0.996,0-1.945,0.158-2.803,0.552c-2.25,1.025-3.882,3.154-4.167,5.758
	c0,0.867,0.647,1.576,1.511,1.576h10.918c0.861,0,1.511-0.709,1.511-1.576c-0.284-2.604-1.917-4.73-4.167-5.758
	C18.945,12.241,17.996,12.083,17,12.083z"/>
<g transform="matrix(.77981 0 0 .78862 2.9634 174.84)">
	<path fill="#1ABC9C" d="M22.999-211.65c0,2.761-2.238,5-4.999,5c-2.761,0-4.999-2.24-4.999-5c0-2.761,2.238-5,4.999-5
		C20.761-216.65,22.999-214.411,22.999-211.65z"/>
	<path fill="#1ABC9C" d="M18-207.65c-1.277,0-2.495,0.201-3.594,0.7c-2.885,1.3-4.978,3.999-5.344,7.3
		c0,1.1,0.833,1.999,1.938,1.999H25c1.102,0,1.936-0.899,1.936-1.999c-0.367-3.301-2.457-6.001-5.345-7.3
		C20.495-207.448,19.277-207.65,18-207.65z"/>
</g>
<g transform="matrix(.77981 0 0 .78862 -7.0366 174.84)">
	<path fill="#3498DB" d="M23-211.647c0,2.761-2.239,5-5,5c-2.761,0-5-2.239-5-5c0-2.761,2.239-5,5-5
		C20.761-216.65,23-214.411,23-211.647z"/>
	<path fill="#3498DB" d="M18-207.65c-1.277,0-2.494,0.201-3.594,0.7c-2.885,1.3-4.978,3.999-5.344,7.3
		c0,1.1,0.833,1.999,1.937,1.999H25c1.105,0,1.938-0.899,1.938-1.999c-0.366-3.301-2.459-6.001-5.344-7.3
		C20.494-207.448,19.277-207.65,18-207.65z"/>
</g>
<path fill="#2C3E50" d="M12,13.084c-0.996,0-1.945,0.158-2.803,0.551c-2.25,1.025-3.882,3.154-4.167,5.758
	c0,0.867,0.647,1.576,1.511,1.576h10.918c0.861,0,1.511-0.709,1.511-1.576c-0.284-2.604-1.917-4.729-4.167-5.758
	C13.945,13.242,12.996,13.084,12,13.084z"/>
<g transform="matrix(.77981 0 0 .78862 2.9634 174.84)">
	<path fill="#34495E" d="M16.587-210.38c0,2.761-2.239,5-4.999,5c-2.761,0-4.999-2.24-4.999-5c0-2.761,2.238-5,4.999-5
		C14.348-215.38,16.587-213.142,16.587-210.38z"/>
	<path fill="#34495E" d="M11.588-206.38c-1.279,0-2.495,0.2-3.594,0.698c-2.885,1.3-4.978,4-5.344,7.301
		c0,1.1,0.833,1.999,1.937,1.999h14.002c1.102,0,1.936-0.899,1.936-1.999c-0.365-3.301-2.457-6.001-5.345-7.301
		C14.083-206.18,12.865-206.38,11.588-206.38z"/>
</g>
<g>
	<path fill="#2C3E50" d="M15.487,11.204l-4.923,4.924l-2.052-2.053l-1.744,1.724l2.052,2.052l1.641,1.641l0.103,0.083l6.667-6.647
		L15.487,11.204z"/>
	<path fill="#2ECC71" d="M15.487,10.579l-4.923,4.924L8.512,13.45l-1.744,1.724l2.052,2.052l1.641,1.641l0.103,0.082l6.667-6.646
		L15.487,10.579z"/>
</g>
</svg>
