<?xml version="1.0" encoding="utf-8"?>
<!-- Generator: Adobe Illustrator 19.1.0, SVG Export Plug-In . SVG Version: 6.00 Build 0)  -->
<svg version="1.1" id="Layer_1" xmlns="http://www.w3.org/2000/svg" xmlns:xlink="http://www.w3.org/1999/xlink" x="0px" y="0px"
     viewBox="0 0 32 32" style="enable-background:new 0 0 32 32;" xml:space="preserve">
<style type="text/css">
	.st0{fill:#1177D1;}
	.st1{fill:#D4EEF5;}
</style>
    <path class="st0" d="M16,0C7.2,0,0,7.2,0,16c0,8.8,7.2,16,16,16c8.8,0,16-7.2,16-16C32,7.2,24.8,0,16,0z"/>
    <g>
	<path class="st1" d="M16.7,24.3c1.1-1,1.8-1.5,2.9-2.6c0.5,0.5,1,0.9,1.5,1.4c-0.4,0.4-0.3,0.3-0.6,0.6c-1.1,1-2.2,2-3.4,2.9
		c-0.5,0.4-1.1,0.7-1.7,0.9c-1.5,0.5-2.7-0.4-2.6-2c0.1-1,0.2-2,0.5-2.9c0.6-2.2,1.2-4.4,1.8-6.6c0.1-0.2,0.1-0.4,0-0.7
		c-1,0.9-1.5,1.3-2.6,2.3c-0.5-0.4-1-0.8-1.6-1.3c0.5-0.5,0.4-0.5,0.9-0.9c0.9-0.8,1.8-1.6,2.8-2.3c0.8-0.5,1.8-0.9,2.7-1.1
		c1.5-0.3,2.3,0.6,2,2.1c-0.7,2.6-1.5,5.2-2.2,7.8c-0.2,0.8-0.4,1.6-0.6,2.4C16.6,24.3,16.6,24.3,16.7,24.3z"/>
        <path class="st1" d="M14.8,7.2c0-1.7,1.1-3,2.6-3.1c1.3-0.1,2.4,0.8,2.4,2.2c0,1.2-0.5,2.1-1.4,2.7c-0.8,0.5-1.6,0.6-2.4,0.2
		C15.1,8.7,14.8,7.9,14.8,7.2z"/>
</g>
</svg>
