<svg width="24" height="24" viewBox="0 0 24 24" fill="none" xmlns="http://www.w3.org/2000/svg" preserveAspectRatio="xMinYMid meet"><defs><style>.cls-1{fill:#212529;stroke-width:0}</style></defs><path class="cls-1" d="M19.3 8.3c.2-.5.3-1.1.3-1.6 0-2.3-1.9-4.1-4.1-4.1h-.1c-1.3 0-2.6.6-3.4 1.7-.7-.6-1.6-.9-2.6-.9-2.1-.1-3.9 1.5-4 3.6v.5c-1.8.3-3.1 1.9-3.2 3.7C2.2 13.3 4 15 6.1 15c.8 0 1.6-.2 2.3-.7.7 1.6 2.6 2.2 4.2 1.5.7-.3 1.2-.8 1.5-1.5 1 1.1 2.5 1.6 3.9 1.3 2.1-.4 3.5-2.5 3.1-4.6-.2-1.1-.9-2.1-1.9-2.6zm-2 6c-.8 0-1.5-.4-2-.9v-.2c-.6-.5-1.3-.6-1.8-.1-.1.1-.3.3-.3.4v.2c-.5.9-1.5 1.3-2.5.9-.4-.2-.8-.5-1-1-.3-.7-1-.9-1.6-.7 0 0-.1 0-.2.1h-.1c-.5.4-1 .6-1.6.5-1.4 0-2.6-1.1-2.6-2.5 0-1.2.9-2.2 2.1-2.4h.5c.4-.2.6-.5.6-.9V7c-.2-.9.3-1.7 1.1-2.1 1-.6 2.3-.6 3.3.2l.4.4c.3.3.8.2 1.1 0l.3-.4c.6-.7 1.4-1.2 2.4-1.2 1.5-.1 2.9 1.1 3 2.6v.1c0 .4 0 .8-.2 1.1l-.2.4c-.2.4 0 .8.3 1l.4.2c.8.5 1.3 1.3 1.3 2.2 0 1.5-1.2 2.6-2.6 2.6z"/><path class="cls-1" d="M11.6 6.4c-.5 0-1.1.2-1.5.5-.3.2-.5.6-.6 1 0 .1 0 .2.2.3h.8c0-.2.2-.4.3-.6.2-.2.5-.2.7-.2.3 0 .5 0 .7.2.2.1.3.3.3.6 0 .2 0 .3-.1.4-.2.2-.4.4-.6.5-.3.2-.5.4-.7.7-.1.2-.2.5-.2.8 0 0 0 .3.3.3h.6c.1 0 .2 0 .2-.2v-.4c.1-.2.3-.4.4-.5.3-.2.6-.5.9-.8.1-.2.2-.5.2-.7 0-.5-.2-.9-.6-1.2-.4-.4-1-.6-1.6-.6z"/><rect class="cls-1" x="11" y="11.6" width="1.1" height="1.1" rx=".2" ry=".2"/><path class="cls-1" d="M7.1 15.3c-1.1 0-1.9.9-1.9 1.9 0 1.1.9 1.9 1.9 1.9 1.1 0 1.9-.9 1.9-1.9 0-1.1-.9-1.9-1.9-1.9zm0 2.6c-.4 0-.6-.3-.6-.6s.3-.6.6-.6.6.3.6.6-.3.6-.6.6zM4.2 18.2c-.9 0-1.6.7-1.6 1.6s.7 1.6 1.6 1.6c.9 0 1.6-.7 1.6-1.6 0-.9-.7-1.6-1.6-1.6zm0 2.1c-.2 0-.4-.2-.4-.4s.2-.4.4-.4.4.2.4.4-.2.4-.4.4zM17.1 17.2c0-1.1-.9-1.9-1.9-1.9-1.1 0-1.9.9-1.9 1.9 0 1.1.9 1.9 1.9 1.9 1.1 0 1.9-.9 1.9-1.9zm-1.9.7c-.4 0-.6-.3-.6-.6s.3-.6.6-.6c.4 0 .6.3.6.6 0 .4-.3.6-.6.6zM18.1 18.2c-.9 0-1.6.7-1.6 1.6s.7 1.6 1.6 1.6c.9 0 1.6-.7 1.6-1.6 0-.9-.7-1.6-1.6-1.6zm0 2.1c-.2 0-.4-.2-.4-.4s.2-.4.4-.4.4.2.4.4-.2.4-.4.4z"/></svg>
