<svg id="Layer_1" data-name="Layer 1" xmlns="http://www.w3.org/2000/svg" viewBox="0 0 24 24"><path d="M21.6,7.28A5.38,5.38,0,0,0,22,5.19,5.19,5.19,0,0,0,16.59.05a5.42,5.42,0,0,0-4.31,2.13A5.06,5.06,0,0,0,9,1a4.85,4.85,0,0,0-5.09,4.8c0,.13,0,.25,0,.37a4.89,4.89,0,0,0-4,4.74,4.94,4.94,0,0,0,5,4.84,5.13,5.13,0,0,0,2.9-.89,4,4,0,0,0,7.22,0A5,5,0,0,0,20,16.49,5,5,0,0,0,21.6,7.28ZM19,14.92a3.36,3.36,0,0,1-2.54-1.2l-.18-.21a1.49,1.49,0,0,0-2.51.37l-.11.25a2.3,2.3,0,0,1-3,1.19,2.35,2.35,0,0,1-1.21-1.25L9.37,14a1.5,1.5,0,0,0-2.22-.63L7,13.45A3.41,3.41,0,0,1,5,14.06a3.26,3.26,0,0,1-3.35-3.17,3.23,3.23,0,0,1,2.63-3.1l.58-.12a1,1,0,0,0,.79-1l0-.59,0-.26v0A2.41,2.41,0,0,1,7.05,3.19a3.51,3.51,0,0,1,4.15.28l.54.45a1,1,0,0,0,1.44-.16l.43-.56a3.74,3.74,0,0,1,3-1.48,3.53,3.53,0,0,1,3.76,3.47,3.79,3.79,0,0,1-.29,1.45l-.23.53a1,1,0,0,0,.4,1.24l.49.3a3.32,3.32,0,0,1,1.61,2.85A3.37,3.37,0,0,1,19,14.92Z"/><path d="M11.76,4.89a2.73,2.73,0,0,0-1.9.64,2.18,2.18,0,0,0-.74,1.24.29.29,0,0,0,.25.35l.78.1A.28.28,0,0,0,10.46,7a1.44,1.44,0,0,1,.44-.73A1.38,1.38,0,0,1,11.82,6a1.33,1.33,0,0,1,.91.3.94.94,0,0,1,.33.72.88.88,0,0,1-.19.55,5.58,5.58,0,0,1-.75.67,3.21,3.21,0,0,0-.84.92,2.34,2.34,0,0,0-.21,1s-.06.34.32.34h.7a.28.28,0,0,0,.29-.28,1.51,1.51,0,0,1,.1-.54,2,2,0,0,1,.57-.61A6.3,6.3,0,0,0,14.2,8a1.66,1.66,0,0,0,.27-.9,2,2,0,0,0-.74-1.51A2.85,2.85,0,0,0,11.76,4.89Z"/><rect x="11.07" y="11.45" width="1.44" height="1.44" rx="0.29"/><path d="M6.08,16.23a2.43,2.43,0,1,0,2.44,2.43A2.43,2.43,0,0,0,6.08,16.23Zm0,3.24a.81.81,0,1,1,.81-.81A.8.8,0,0,1,6.08,19.47Z"/><path d="M2.37,19.91A2.08,2.08,0,1,0,4.45,22,2.08,2.08,0,0,0,2.37,19.91Zm0,2.58a.51.51,0,0,1-.5-.5.5.5,0,0,1,.5-.5.5.5,0,0,1,.5.5A.5.5,0,0,1,2.37,22.49Z"/><path d="M18.73,18.66a2.44,2.44,0,1,0-2.43,2.43A2.43,2.43,0,0,0,18.73,18.66Zm-2.43.81a.81.81,0,1,1,.81-.81A.81.81,0,0,1,16.3,19.47Z"/><path d="M20,19.91A2.08,2.08,0,1,0,22.08,22,2.08,2.08,0,0,0,20,19.91Zm0,2.58a.5.5,0,0,1-.5-.5.5.5,0,0,1,1,0A.5.5,0,0,1,20,22.49Z"/></svg>