<?xml version="1.0" encoding="utf-8"?>
<!-- Generator: Adobe Illustrator 26.0.1, SVG Export Plug-In . SVG Version: 6.00 Build 0)  -->
<svg version="1.1" id="Layer_1" xmlns="http://www.w3.org/2000/svg" xmlns:xlink="http://www.w3.org/1999/xlink" x="0px" y="0px"
	 width="32px" height="32px" viewBox="0 0 32 32" style="enable-background:new 0 0 32 32;" xml:space="preserve">
<style type="text/css">
	.st0{fill:#002158;}
</style>
<g>
	<path class="st0" d="M31.3,27.8l-6.6-6.6c1.6-2.3,2.4-4.9,2.4-7.7c0-1.8-0.4-3.6-1.1-5.3s-1.7-3.1-2.9-4.3
		c-1.2-1.2-2.7-2.2-4.3-2.9c-1.7-0.6-3.4-1-5.3-1S10,0.4,8.3,1.1S5.2,2.7,4,4C2.7,5.2,1.8,6.6,1.1,8.3S0,11.7,0,13.5
		s0.4,3.6,1.1,5.3c0.7,1.7,1.7,3.1,2.9,4.3c1.2,1.2,2.7,2.2,4.3,2.9c1.7,0.7,3.4,1.1,5.3,1.1c2.8,0,5.4-0.8,7.7-2.4l6.6,6.6
		c0.5,0.5,1,0.7,1.7,0.7s1.2-0.2,1.7-0.7s0.7-1.1,0.7-1.7C32,28.9,31.8,28.3,31.3,27.8L31.3,27.8z M19.6,19.6
		c-1.7,1.7-3.7,2.5-6.1,2.5s-4.4-0.8-6.1-2.5s-2.5-3.7-2.5-6.1s0.8-4.4,2.5-6.1s3.7-2.5,6.1-2.5s4.4,0.8,6.1,2.5s2.5,3.7,2.5,6.1
		S21.3,17.9,19.6,19.6L19.6,19.6z"/>
</g>
</svg>
